<svg xmlns="http://www.w3.org/2000/svg" viewBox="0 0 64 64" role="img" aria-labelledby="title">
  <title id="title">ナベアツ電卓</title>
  <defs>
    <linearGradient id="panel" x1="8" y1="5" x2="56" y2="59" gradientUnits="userSpaceOnUse">
      <stop stop-color="#21162f"/>
      <stop offset="1" stop-color="#0b0b10"/>
    </linearGradient>
    <linearGradient id="edge" x1="10" y1="8" x2="55" y2="57" gradientUnits="userSpaceOnUse">
      <stop stop-color="#b464ff"/>
      <stop offset="1" stop-color="#7f36ff"/>
    </linearGradient>
  </defs>
  <rect x="3" y="3" width="58" height="58" rx="13" fill="#07070a"/>
  <rect x="7.5" y="7.5" width="49" height="49" rx="10.5" fill="url(#panel)" stroke="url(#edge)"/>
  <path d="M14 42.5h36" stroke="#30283b" stroke-linecap="round"/>
  <circle cx="17" cy="49" r="2" fill="#7f36ff"/>
  <circle cx="24.5" cy="49" r="2" fill="#7f36ff"/>
  <circle cx="32" cy="49" r="2" fill="#7f36ff"/>
  <circle cx="39.5" cy="49" r="2" fill="#14f5ff"/>
  <circle cx="47" cy="49" r="2" fill="#ff36c8"/>
  <path d="M19.5 20.5c1.9-2.7 4.9-4 8.7-4 5.5 0 9.1 2.7 9.1 6.7 0 2.7-1.7 4.8-4.6 5.8 3.5.8 5.4 3.1 5.4 6.2 0 4.5-4 7.5-10.2 7.5-4.3 0-7.7-1.5-9.6-4.5l5-3.4c1.1 1.6 2.7 2.4 4.7 2.4 2.3 0 3.8-1.1 3.8-2.8 0-1.8-1.5-2.7-4.5-2.7h-2.8v-5.1h2.8c2.5 0 3.8-.8 3.8-2.5 0-1.4-1.2-2.3-3.1-2.3-1.7 0-3.1.7-4.2 2.1l-4.3-3.4Z" fill="#f8f7ff"/>
  <path d="M42.5 16v9M38 20.5h9" stroke="#14f5ff" stroke-width="3" stroke-linecap="round"/>
</svg>
